<svg xmlns="http://www.w3.org/2000/svg" width="800" height="800" viewBox="0 0 800 800">
<g>
<path d="M 653.12 661.36 L 648.50 663.50 L 401.00 663.65 C264.88,663.73 151.54,663.40 149.15,662.93 C143.41,661.80 137.32,658.13 131.72,652.46 C126.20,646.86 123.94,639.48 123.30,624.94 C122.93,616.53 123.11,615.08 124.85,612.94 C126.78,610.55 127.17,610.49 144.16,610.17 C153.70,610.00 161.86,609.50 162.31,609.06 C162.76,608.63 159.93,591.90 156.04,571.89 C152.14,551.88 146.93,524.92 144.45,512.00 C141.97,499.08 137.66,476.86 134.87,462.63 C128.76,431.44 128.56,424.50 133.53,416.42 C136.75,411.19 144.93,404.87 151.00,402.91 C152.93,402.29 160.80,401.50 168.50,401.14 L 182.50 400.50 L 182.50 393.50 C182.50,382.28 187.41,373.72 200.30,362.45 C202.88,360.20 210.69,355.20 214.25,353.53 C216.31,352.56 218.00,351.35 218.00,350.84 C218.00,349.77 215.21,344.08 213.85,342.36 C212.90,341.17 200.18,343.49 191.07,346.53 C187.15,347.83 186.39,347.83 184.32,346.48 C180.94,344.26 181.41,341.65 185.54,339.68 C191.30,336.94 200.72,334.00 203.78,334.00 C205.34,334.00 207.46,333.38 208.50,332.62 C210.24,331.35 210.28,330.81 209.10,325.37 C208.40,322.14 207.65,318.56 207.43,317.41 C207.07,315.44 206.20,315.27 193.91,314.68 C186.42,314.32 180.17,313.56 179.39,312.90 C177.32,311.19 177.69,307.23 180.03,305.98 C181.38,305.26 185.75,305.13 193.01,305.59 L 193.20 305.60 C200.52,306.06 203.95,306.28 205.57,304.67 C207.00,303.24 207.00,300.38 207.00,294.98 L 207.00 294.82 C207.00,274.97 212.47,252.90 223.10,229.79 L 227.11 221.08 L 224.55 212.96 C213.09,176.69 212.13,128.95 222.40,106.45 C229.62,90.65 244.00,85.28 267.97,89.43 C277.35,91.06 292.19,96.70 300.23,101.68 C302.28,102.96 304.20,104.00 304.49,104.00 C305.81,104.00 322.19,115.87 328.35,121.29 L 335.19 127.32 L 346.35 124.13 C360.89,119.96 370.07,118.29 385.16,117.08 C406.21,115.39 432.69,118.36 451.89,124.56 L 459.29 126.95 L 464.89 122.20 C492.24,99.02 517.07,88.00 541.91,88.00 C552.64,88.00 558.02,89.62 564.01,94.66 C567.29,97.42 572.62,107.13 575.46,115.50 C581.38,132.99 580.08,177.10 572.81,205.00 C571.16,211.32 569.58,217.50 569.30,218.72 C568.82,220.75 570.05,224.31 578.55,245.50 C583.38,257.58 587.90,280.59 588.09,294.11 C588.16,298.85 588.60,303.35 589.07,304.11 C589.75,305.21 592.56,305.43 602.38,305.16 C614.04,304.85 614.91,304.96 615.92,306.85 C618.79,312.21 615.22,313.99 601.60,314.01 C588.57,314.03 588.55,314.04 587.05,321.32 C584.87,331.91 584.91,332.06 590.00,333.54 C592.47,334.25 598.22,335.63 602.77,336.59 C611.87,338.51 613.30,339.52 612.82,343.69 C612.43,347.14 611.84,347.13 598.50,343.64 C584.90,340.08 582.49,340.15 579.96,344.25 C577.54,348.18 577.78,352.09 580.53,353.48 C581.65,354.04 586.42,357.07 591.13,360.21 C600.48,366.45 607.56,373.97 611.54,381.88 C613.92,386.64 614.02,387.38 613.00,393.01 C612.40,396.32 612.18,399.48 612.51,400.02 C612.85,400.57 618.26,401.00 624.85,401.00 C641.67,401.00 648.90,403.13 656.84,410.43 C661.17,414.41 663.56,419.16 664.91,426.46 C666.10,432.91 665.20,440.62 660.57,463.50 C659.23,470.10 656.96,482.02 655.52,490.00 C654.08,497.98 652.04,508.33 650.99,513.00 C649.93,517.67 648.40,525.55 647.58,530.50 C645.17,545.00 643.21,555.98 641.60,564.00 C635.09,596.47 633.02,608.22 633.61,609.17 C633.89,609.63 641.48,610.00 650.48,610.00 C666.63,610.00 666.89,610.03 669.92,612.59 C672.91,615.10 673.00,615.43 673.00,623.53 C673.00,633.02 670.77,644.00 667.90,648.65 C665.10,653.19 658.48,658.89 653.12,661.36 ZM 221.00 637.07 C235.02,637.40 325.48,637.60 422.00,637.53 L 597.50 637.40 L 601.57 635.27 C606.14,632.88 612.59,626.20 614.06,622.35 C614.59,620.95 616.16,613.66 617.54,606.15 C618.93,598.64 621.60,584.62 623.48,575.00 C625.35,565.38 627.84,552.33 628.99,546.00 C630.15,539.67 632.19,528.65 633.54,521.50 C634.88,514.35 637.14,502.20 638.57,494.50 C639.99,486.80 642.23,475.10 643.54,468.50 C648.04,445.77 650.16,431.68 649.55,428.60 C648.77,424.73 645.47,420.73 641.30,418.62 C638.38,417.14 617.27,417.00 397.52,417.00 C382.07,417.00 367.59,417.00 354.01,417.00 C160.42,416.98 151.99,416.98 149.21,420.94 C148.89,421.40 148.64,421.91 148.19,422.48 C144.02,427.79 144.04,428.04 151.02,465.50 C155.69,490.54 160.21,514.53 162.44,526.00 C163.77,532.88 165.82,543.67 166.99,550.00 C168.16,556.33 169.97,565.78 171.02,571.00 C172.07,576.22 174.34,588.38 176.06,598.00 C177.78,607.62 179.88,617.88 180.74,620.78 C182.41,626.45 187.97,633.15 192.79,635.28 C194.53,636.05 204.60,636.69 221.00,637.07 ZM 312.60 397.75 L 313.09 401.00 L 481.71 401.00 L 482.87 393.93 C485.00,381.06 492.54,368.84 503.46,360.55 C517.08,350.21 529.62,345.87 546.50,345.65 C552.00,345.58 557.74,345.86 559.25,346.28 C561.65,346.94 562.26,346.63 563.95,343.84 C565.02,342.08 565.67,340.27 565.39,339.82 C565.11,339.37 562.68,339.00 560.00,339.00 C554.67,339.00 551.76,336.62 552.70,333.03 C553.34,330.59 556.20,329.95 563.21,330.68 L 568.98 331.28 L 570.40 327.89 C571.17,326.03 572.08,322.76 572.42,320.63 L 573.03 316.76 L 564.48 317.47 C555.11,318.25 553.00,317.51 553.00,313.44 C553.00,310.36 553.51,310.13 563.16,308.92 C567.71,308.35 572.01,307.40 572.72,306.82 C574.67,305.20 574.32,289.08 572.05,275.77 C569.57,261.28 563.61,243.08 556.97,229.72 L 551.80 219.31 L 554.88 208.41 C561.83,183.84 562.40,179.69 562.45,153.00 C562.50,128.68 562.48,128.44 559.64,119.76 C554.57,104.31 547.76,100.86 530.40,104.95 C508.76,110.05 492.02,118.90 471.31,136.17 C466.80,139.93 462.33,143.00 461.38,143.00 C460.42,143.00 457.13,142.12 454.07,141.06 C433.26,133.78 406.24,130.75 381.50,132.92 C369.03,134.01 358.59,136.06 339.80,141.12 C331.10,143.46 331.09,143.46 328.65,141.48 C327.31,140.39 322.23,136.26 317.36,132.30 C296.40,115.25 271.17,103.83 254.00,103.59 C246.09,103.48 241.53,105.78 238.33,111.49 C229.23,127.70 230.34,175.68 240.56,208.30 C241.90,212.59 243.00,216.93 243.00,217.93 C243.00,218.94 240.32,225.33 237.05,232.13 C226.11,254.87 220.75,276.43 221.22,295.81 L 221.50 307.50 L 230.89 308.74 C240.66,310.03 243.00,311.05 243.00,314.00 C243.00,317.56 240.50,318.30 230.99,317.55 C230.67,317.53 230.36,317.50 230.06,317.48 C225.42,317.11 223.17,316.93 222.37,317.93 C221.60,318.87 222.12,320.84 223.13,324.68 C223.20,324.95 223.27,325.22 223.34,325.50 L 224.65 330.50 L 232.57 330.50 C240.97,330.50 243.00,331.13 243.00,333.73 C243.00,337.13 239.92,339.00 234.35,339.00 C231.41,339.00 229.00,339.25 229.00,339.55 C229.00,339.85 229.70,341.46 230.56,343.12 L 232.12 346.14 L 240.84 345.46 C259.78,343.98 279.14,349.92 292.95,361.46 C302.16,369.15 310.41,381.87 311.51,390.06 C311.84,392.50 312.33,395.96 312.60,397.75 ZM 541.75 407.05 C549.70,408.61 555.24,406.03 558.50,399.23 C559.60,396.95 560.73,395.06 561.00,395.04 C561.28,395.02 562.58,397.02 563.89,399.50 C565.20,401.98 566.78,404.05 567.39,404.12 C568.00,404.18 573.22,404.14 579.00,404.02 C593.35,403.74 598.00,400.72 598.00,391.69 C598.00,384.01 586.39,371.46 574.00,365.72 C555.44,357.14 531.46,358.13 515.85,368.11 C506.26,374.24 497.04,387.06 497.01,394.30 C497.00,397.86 499.39,402.54 501.71,403.49 C504.99,404.84 521.53,405.32 523.75,404.13 C524.90,403.52 526.38,401.32 527.04,399.26 C528.89,393.47 529.75,393.26 531.84,398.09 C534.23,403.63 536.98,406.11 541.75,407.05 ZM 244.00 406.64 C245.99,407.39 249.66,407.77 252.50,407.51 C256.65,407.14 258.06,406.46 260.78,403.52 C262.58,401.56 264.32,398.63 264.65,396.98 C265.52,392.64 267.36,393.33 268.91,398.56 C270.88,405.23 272.67,406.02 283.77,405.08 C295.23,404.12 298.00,402.21 298.00,395.29 C298.00,383.41 284.08,368.66 266.76,362.18 C250.60,356.14 227.44,359.97 212.26,371.18 C199.52,380.59 195.22,389.72 199.57,398.13 C201.86,402.56 206.32,404.00 217.78,404.00 C228.95,404.00 230.43,403.35 232.41,397.58 L 233.75 393.69 L 235.23 396.09 C236.04,397.42 237.56,400.04 238.61,401.91 C239.78,404.02 241.85,405.83 244.00,406.64 ZM 392.07 342.15 C385.34,346.33 379.94,346.78 373.46,343.69 C367.96,341.07 364.70,337.13 365.19,333.69 C365.66,330.37 370.30,330.23 374.10,333.43 C376.34,335.32 378.30,336.00 381.44,336.00 C387.36,336.00 390.69,333.22 391.54,327.59 C392.36,322.12 391.23,319.96 385.69,316.46 C378.16,311.69 374.68,304.31 378.90,302.05 C384.35,299.14 409.09,299.21 414.75,302.17 C419.41,304.59 416.86,309.99 407.99,316.51 C403.19,320.03 403.00,320.36 403.00,325.03 C403.00,332.19 406.11,335.50 412.83,335.50 C416.70,335.50 418.40,334.97 420.32,333.17 C423.87,329.83 428.38,330.46 428.83,334.35 C429.49,340.12 422.04,345.00 412.58,345.00 C408.29,345.00 405.99,344.35 402.06,342.03 L 397.03 339.07 ZM 476.90 304.55 C471.78,307.20 465.15,305.89 459.61,301.12 C453.82,296.15 452.04,281.30 456.25,272.97 C459.42,266.70 463.86,264.00 471.00,264.00 C475.70,264.00 477.40,264.51 480.70,266.90 C492.18,275.21 489.90,297.83 476.90,304.55 ZM 332.97 303.02 C328.05,306.53 320.59,306.73 315.77,303.50 C309.94,299.59 307.54,294.06 307.52,284.50 C307.49,270.80 312.95,264.00 324.00,264.00 C328.27,264.00 330.54,264.57 333.01,266.25 C338.96,270.30 340.45,273.30 340.85,282.00 C341.15,288.72 340.84,290.66 338.73,295.28 C337.29,298.42 334.88,301.66 332.97,303.02 ZM 612.63 648.21 C613.05,648.89 619.04,649.10 629.98,648.81 L 646.69 648.38 L 649.85 644.94 C654.28,640.11 659.23,629.88 658.83,626.37 L 658.50 623.50 L 644.40 623.22 L 630.30 622.95 L 628.11 628.67 C625.55,635.34 620.47,641.93 615.49,645.00 C613.57,646.20 612.28,647.64 612.63,648.21 ZM 151.64 647.54 C155.59,648.94 181.03,649.63 182.30,648.37 C182.65,648.02 181.26,646.52 179.22,645.04 C174.60,641.69 169.00,635.39 169.00,633.55 C169.00,632.79 168.12,630.10 167.04,627.58 L 165.07 623.00 L 138.00 623.00 L 138.00 627.64 C138.00,636.08 143.98,644.81 151.64,647.54 Z" fill="rgb(90,65,111)"/>
<path d="M 646.69 648.38 L 639.70 648.56 C642.07,648.19 643.59,647.51 646.07,646.25 C649.50,644.51 651.36,643.06 653.27,640.34 C652.16,642.10 650.99,643.70 649.85,644.94 ZM 612.63 648.21 C612.61,648.18 612.60,648.16 612.59,648.13 C613.07,648.49 616.84,648.81 621.86,648.94 C616.08,648.94 612.93,648.70 612.63,648.21 ZM 658.63 624.65 C658.24,624.07 657.52,623.70 656.32,623.46 L 658.50 623.50 ZM 630.30 622.95 L 633.01 623.00 L 630.28 623.00 Z" fill="rgb(128,111,141)"/>
<path d="M 551.71 186.00 C552.22,207.08 551.56,208.53 544.99,200.73 C533.04,186.54 509.28,167.77 485.54,153.73 C482.96,152.20 481.03,150.40 481.25,149.73 C482.12,147.08 497.24,135.17 507.44,129.11 C518.00,122.84 530.37,118.00 535.86,118.00 C538.89,118.00 541.86,120.66 544.25,125.50 C547.55,132.20 551.09,160.91 551.71,186.00 ZM 267.59 183.01 C261.80,188.01 255.12,194.33 252.73,197.06 C249.02,201.30 248.16,201.83 246.77,200.76 C245.40,199.70 245.03,196.30 244.48,179.50 C243.45,147.98 246.04,126.49 251.58,120.51 C255.60,116.17 264.12,117.47 278.06,124.53 C289.88,130.52 312.50,147.23 312.50,149.97 C312.50,151.16 305.57,155.91 295.50,161.60 C290.29,164.55 278.49,173.61 267.59,183.01 ZM 125.60 612.08 C125.35,612.33 125.11,612.61 124.85,612.94 C123.11,615.08 122.93,616.53 123.30,624.94 C123.94,639.48 126.20,646.86 131.72,652.46 C134.79,655.57 138.00,658.07 141.22,659.89 C138.59,658.49 136.09,656.78 134.29,655.08 C132.15,653.06 131.15,653.00 99.70,653.00 C69.59,653.00 67.19,652.87 65.65,651.17 C63.57,648.87 63.53,645.61 65.57,643.57 C66.93,642.22 71.05,642.00 95.43,642.00 L 123.72 642.00 L 123.24 628.75 C123.22,628.02 123.19,627.32 123.16,626.64 C122.88,619.05 122.73,615.04 124.65,612.89 C124.93,612.58 125.24,612.32 125.60,612.08 ZM 661.18 656.14 C659.92,657.25 657.96,658.62 656.06,659.77 C660.70,656.91 665.60,652.38 667.90,648.65 C670.05,645.17 671.84,638.13 672.60,630.82 C672.27,639.24 672.50,640.98 673.66,641.42 C674.49,641.74 687.08,642.00 701.65,642.00 C717.99,642.00 728.87,642.40 730.07,643.04 C732.56,644.37 732.62,649.13 730.17,651.35 C728.55,652.81 724.73,653.00 696.55,653.00 L 664.76 653.00 ZM 673.00 621.85 C672.97,615.48 672.70,614.93 670.07,612.71 L 673.28 615.42 ZM 134.12 610.41 C136.80,610.29 140.10,610.25 144.16,610.17 C139.84,610.26 136.60,610.32 134.12,610.41 ZM 667.74 611.04 C665.63,610.02 662.33,610.00 650.48,610.00 C662.34,610.00 665.61,610.00 667.74,611.04 Z" fill="rgb(186,163,231)"/>
<path d="M 0.00 400.00 L 0.00 0.00 L 400.00 0.00 L 800.00 0.00 L 800.00 400.00 L 800.00 800.00 L 400.00 800.00 L 0.00 800.00 L 0.00 400.00 ZM 653.05 661.39 C655.55,660.24 659.21,657.87 661.18,656.14 L 664.76 653.00 L 696.55 653.00 C724.73,653.00 728.55,652.81 730.17,651.35 C732.62,649.13 732.56,644.37 730.07,643.04 C728.87,642.40 717.99,642.00 701.65,642.00 C687.08,642.00 674.49,641.74 673.66,641.42 C672.38,640.93 672.24,638.89 672.72,628.13 L 673.28 615.42 L 670.07 612.71 C666.85,610.01 666.81,610.00 650.48,610.00 C641.48,610.00 633.89,609.63 633.61,609.17 C633.02,608.22 635.09,596.47 641.60,564.00 C643.21,555.98 645.17,545.00 647.58,530.50 C648.40,525.55 649.93,517.67 650.99,513.00 C652.04,508.33 654.08,497.98 655.52,490.00 C656.96,482.02 659.23,470.10 660.57,463.50 C665.20,440.62 666.10,432.91 664.91,426.46 C663.56,419.16 661.17,414.41 656.84,410.43 C648.90,403.13 641.67,401.00 624.85,401.00 C618.26,401.00 612.85,400.57 612.51,400.02 C612.18,399.48 612.40,396.32 613.00,393.01 C614.02,387.38 613.92,386.64 611.54,381.88 C607.56,373.97 600.48,366.45 591.13,360.21 C586.42,357.07 581.65,354.04 580.53,353.48 C577.78,352.09 577.54,348.18 579.96,344.25 C582.49,340.15 584.90,340.08 598.50,343.64 C611.84,347.13 612.43,347.14 612.82,343.69 C613.30,339.52 611.87,338.51 602.77,336.59 C598.22,335.63 592.47,334.25 590.00,333.54 C584.91,332.06 584.87,331.91 587.05,321.32 C588.55,314.04 588.57,314.03 601.60,314.01 C615.22,313.99 618.79,312.21 615.92,306.85 C614.91,304.96 614.04,304.85 602.38,305.16 C592.56,305.43 589.75,305.21 589.07,304.11 C588.60,303.35 588.16,298.85 588.09,294.11 C587.90,280.59 583.38,257.58 578.55,245.50 C570.05,224.31 568.82,220.75 569.30,218.72 C569.58,217.50 571.16,211.32 572.81,205.00 C580.08,177.10 581.38,132.99 575.46,115.50 C572.62,107.13 567.29,97.42 564.01,94.66 C558.02,89.62 552.64,88.00 541.91,88.00 C517.07,88.00 492.24,99.02 464.89,122.20 L 459.29 126.95 L 451.89 124.56 C432.69,118.36 406.21,115.39 385.16,117.08 C370.07,118.29 360.89,119.96 346.35,124.13 L 335.19 127.32 L 328.35 121.29 C322.19,115.87 305.81,104.00 304.49,104.00 C304.20,104.00 302.28,102.96 300.23,101.68 C292.19,96.70 277.35,91.06 267.97,89.43 C244.00,85.28 229.62,90.65 222.40,106.45 C212.13,128.95 213.09,176.69 224.55,212.96 L 227.11 221.08 L 223.10 229.79 C212.47,252.90 207.00,274.97 207.00,294.82 C207.00,306.53 207.07,306.48 193.01,305.59 C185.75,305.13 181.38,305.26 180.03,305.98 C177.69,307.23 177.32,311.19 179.39,312.90 C180.17,313.56 186.42,314.32 193.91,314.68 C206.20,315.27 207.07,315.44 207.43,317.41 C207.65,318.56 208.40,322.14 209.10,325.37 C210.28,330.81 210.24,331.35 208.50,332.62 C207.46,333.38 205.34,334.00 203.78,334.00 C200.72,334.00 191.30,336.94 185.54,339.68 C181.41,341.65 180.94,344.26 184.32,346.48 C186.39,347.83 187.15,347.83 191.07,346.53 C200.18,343.49 212.90,341.17 213.85,342.36 C215.21,344.08 218.00,349.77 218.00,350.84 C218.00,351.35 216.31,352.56 214.25,353.53 C210.69,355.20 202.88,360.20 200.30,362.45 C187.41,373.72 182.50,382.28 182.50,393.50 L 182.50 400.50 L 168.50 401.14 C160.80,401.50 152.93,402.29 151.00,402.91 C144.93,404.87 136.75,411.19 133.53,416.42 C128.56,424.50 128.76,431.44 134.87,462.63 C137.66,476.86 141.97,499.08 144.45,512.00 C146.93,524.92 152.14,551.88 156.04,571.89 C159.93,591.90 162.76,608.63 162.31,609.06 C161.86,609.50 153.70,610.00 144.16,610.17 C121.69,610.60 122.57,609.82 123.24,628.75 L 123.72 642.00 L 95.43 642.00 C71.05,642.00 66.93,642.22 65.57,643.57 C63.53,645.61 63.57,648.87 65.65,651.17 C67.19,652.87 69.59,653.00 99.70,653.00 C131.15,653.00 132.15,653.06 134.29,655.08 C137.96,658.54 144.53,662.02 149.15,662.93 C151.54,663.40 264.88,663.73 401.00,663.65 L 648.50 663.50 L 653.05 661.39 ZM 151.64 647.54 C143.98,644.81 138.00,636.08 138.00,627.64 L 138.00 623.00 L 151.54 623.00 L 165.07 623.00 L 167.04 627.58 C168.12,630.10 169.00,632.79 169.00,633.55 C169.00,635.39 174.60,641.69 179.22,645.04 C181.26,646.52 182.65,648.02 182.30,648.37 C181.03,649.63 155.59,648.94 151.64,647.54 ZM 612.55 648.09 C612.24,647.58 613.57,646.20 615.49,645.00 C620.46,641.93 625.55,635.34 628.10,628.70 L 630.28 623.00 L 644.17 623.00 C659.51,623.00 659.76,623.11 658.60,629.32 C658.26,631.13 656.52,635.07 654.74,638.06 C652.19,642.35 650.35,644.08 646.07,646.25 C640.93,648.85 639.91,649.00 626.88,649.00 C619.31,649.00 612.86,648.59 612.55,648.09 ZM 221.00 637.07 C204.60,636.69 194.53,636.05 192.79,635.28 C187.97,633.15 182.41,626.45 180.74,620.78 C179.88,617.88 177.78,607.62 176.06,598.00 C174.34,588.38 172.07,576.22 171.02,571.00 C169.97,565.78 168.16,556.33 166.99,550.00 C165.82,543.67 163.77,532.88 162.44,526.00 C160.21,514.53 155.69,490.54 151.02,465.50 C144.04,428.04 144.02,427.79 148.19,422.48 C152.79,416.63 136.15,417.00 397.52,417.00 C617.27,417.00 638.38,417.14 641.30,418.62 C645.47,420.73 648.77,424.73 649.55,428.60 C650.16,431.68 648.04,445.77 643.54,468.50 C642.23,475.10 639.99,486.80 638.57,494.50 C637.14,502.20 634.88,514.35 633.54,521.50 C632.19,528.65 630.15,539.67 628.99,546.00 C627.84,552.33 625.35,565.38 623.48,575.00 C621.60,584.62 618.93,598.64 617.54,606.15 C616.16,613.66 614.59,620.95 614.06,622.35 C612.59,626.20 606.14,632.88 601.57,635.27 L 597.50 637.40 L 422.00 637.53 C325.48,637.60 235.02,637.40 221.00,637.07 ZM 244.00 406.64 C241.85,405.83 239.78,404.02 238.61,401.91 C237.56,400.04 236.04,397.42 235.23,396.09 L 233.75 393.69 L 232.41 397.58 C230.43,403.35 228.95,404.00 217.78,404.00 C206.32,404.00 201.86,402.56 199.57,398.13 C195.22,389.72 199.52,380.59 212.26,371.18 C227.44,359.97 250.60,356.14 266.76,362.18 C284.08,368.66 298.00,383.41 298.00,395.29 C298.00,402.21 295.23,404.12 283.77,405.08 C272.67,406.02 270.88,405.23 268.91,398.56 C267.36,393.33 265.52,392.64 264.65,396.98 C264.32,398.63 262.58,401.56 260.78,403.52 C258.06,406.46 256.65,407.14 252.50,407.51 C249.66,407.77 245.99,407.39 244.00,406.64 ZM 541.75 407.05 C536.98,406.11 534.23,403.63 531.84,398.09 C529.75,393.26 528.89,393.47 527.04,399.26 C526.38,401.32 524.90,403.52 523.75,404.13 C521.53,405.32 504.99,404.84 501.71,403.49 C499.39,402.54 497.00,397.86 497.01,394.30 C497.04,387.06 506.26,374.24 515.85,368.11 C531.46,358.13 555.44,357.14 574.00,365.72 C586.39,371.46 598.00,384.01 598.00,391.69 C598.00,400.72 593.35,403.74 579.00,404.02 C573.22,404.14 568.00,404.18 567.39,404.12 C566.78,404.05 565.20,401.98 563.89,399.50 C562.58,397.02 561.28,395.02 561.00,395.04 C560.73,395.06 559.60,396.95 558.50,399.23 C555.24,406.03 549.70,408.61 541.75,407.05 ZM 312.60 397.75 C312.33,395.96 311.84,392.50 311.51,390.06 C310.41,381.87 302.16,369.15 292.95,361.46 C279.14,349.92 259.78,343.98 240.84,345.46 L 232.12 346.14 L 230.56 343.12 C229.70,341.46 229.00,339.85 229.00,339.55 C229.00,339.25 231.41,339.00 234.35,339.00 C239.92,339.00 243.00,337.13 243.00,333.73 C243.00,331.13 240.97,330.50 232.57,330.50 L 224.65 330.50 L 223.34 325.50 C220.99,316.49 220.74,316.75 230.99,317.55 C240.50,318.30 243.00,317.56 243.00,314.00 C243.00,311.05 240.66,310.03 230.89,308.74 L 221.50 307.50 L 221.22 295.81 C220.75,276.43 226.11,254.87 237.05,232.13 C240.32,225.33 243.00,218.94 243.00,217.93 C243.00,216.93 241.90,212.59 240.56,208.30 C230.34,175.68 229.23,127.70 238.33,111.49 C241.53,105.78 246.09,103.48 254.00,103.59 C271.17,103.83 296.40,115.25 317.36,132.30 C322.23,136.26 327.31,140.39 328.65,141.48 C331.09,143.46 331.10,143.46 339.80,141.12 C358.59,136.06 369.03,134.01 381.50,132.92 C406.24,130.75 433.26,133.78 454.07,141.06 C457.13,142.12 460.42,143.00 461.38,143.00 C462.33,143.00 466.80,139.93 471.31,136.17 C492.02,118.90 508.76,110.05 530.40,104.95 C547.76,100.86 554.57,104.31 559.64,119.76 C562.48,128.44 562.50,128.68 562.45,153.00 C562.40,179.69 561.83,183.84 554.88,208.41 L 551.80 219.31 L 556.97 229.72 C563.61,243.08 569.57,261.28 572.05,275.77 C574.32,289.08 574.67,305.20 572.72,306.82 C572.01,307.40 567.71,308.35 563.16,308.92 C553.51,310.13 553.00,310.36 553.00,313.44 C553.00,317.51 555.11,318.25 564.48,317.47 L 573.03 316.76 L 572.42 320.63 C572.08,322.76 571.17,326.03 570.40,327.89 L 568.98 331.28 L 563.21 330.68 C556.20,329.95 553.34,330.59 552.70,333.03 C551.76,336.62 554.67,339.00 560.00,339.00 C562.68,339.00 565.11,339.37 565.39,339.82 C565.67,340.27 565.02,342.08 563.95,343.84 C562.26,346.63 561.65,346.94 559.25,346.28 C557.74,345.86 552.00,345.58 546.50,345.65 C529.62,345.87 517.08,350.21 503.46,360.55 C492.54,368.84 485.00,381.06 482.87,393.93 L 481.71 401.00 L 397.40 401.00 L 313.09 401.00 L 312.60 397.75 ZM 392.07 342.15 L 397.03 339.07 L 402.06 342.03 C405.99,344.35 408.29,345.00 412.58,345.00 C422.04,345.00 429.49,340.12 428.83,334.35 C428.38,330.46 423.87,329.83 420.32,333.17 C418.40,334.97 416.70,335.50 412.83,335.50 C406.11,335.50 403.00,332.19 403.00,325.03 C403.00,320.36 403.19,320.03 407.99,316.51 C416.86,309.99 419.41,304.59 414.75,302.17 C409.09,299.21 384.35,299.14 378.90,302.05 C374.68,304.31 378.16,311.69 385.69,316.46 C391.23,319.96 392.36,322.12 391.54,327.59 C390.69,333.22 387.36,336.00 381.44,336.00 C378.30,336.00 376.34,335.32 374.10,333.43 C370.30,330.23 365.66,330.37 365.19,333.69 C364.70,337.13 367.96,341.07 373.46,343.69 C379.94,346.78 385.34,346.33 392.07,342.15 ZM 332.97 303.02 C334.88,301.66 337.29,298.42 338.73,295.28 C340.84,290.66 341.15,288.72 340.85,282.00 C340.45,273.30 338.96,270.30 333.01,266.25 C330.54,264.57 328.27,264.00 324.00,264.00 C312.95,264.00 307.49,270.80 307.52,284.50 C307.54,294.06 309.94,299.59 315.77,303.50 C320.59,306.73 328.05,306.53 332.97,303.02 ZM 476.90 304.55 C489.90,297.83 492.18,275.21 480.70,266.90 C477.40,264.51 475.70,264.00 471.00,264.00 C463.86,264.00 459.42,266.70 456.25,272.97 C452.04,281.30 453.82,296.15 459.61,301.12 C465.15,305.89 471.78,307.20 476.90,304.55 ZM 551.71 186.00 C551.09,160.91 547.55,132.20 544.25,125.50 C541.86,120.66 538.89,118.00 535.86,118.00 C530.37,118.00 518.00,122.84 507.44,129.11 C497.24,135.17 482.12,147.08 481.25,149.73 C481.03,150.40 482.96,152.20 485.54,153.73 C509.28,167.77 533.04,186.54 544.99,200.73 C551.56,208.53 552.22,207.08 551.71,186.00 ZM 267.59 183.01 C278.49,173.61 290.29,164.55 295.50,161.60 C305.57,155.91 312.50,151.16 312.50,149.97 C312.50,147.23 289.88,130.52 278.06,124.53 C264.12,117.47 255.60,116.17 251.58,120.51 C246.04,126.49 243.45,147.98 244.48,179.50 C245.03,196.30 245.40,199.70 246.77,200.76 C248.16,201.83 249.02,201.30 252.73,197.06 C255.12,194.33 261.80,188.01 267.59,183.01 Z" fill="rgb(251,250,254)"/>
</g>
</svg>