<?xml version="1.0" standalone="no"?> <!DOCTYPE svg PUBLIC "-//W3C//DTD SVG 20010904//EN" "http://www.w3.org/TR/2001/REC-SVG-20010904/DTD/svg10.dtd"> <svg version="1.0" xmlns="http://www.w3.org/2000/svg" width="600.000000pt" height="600.000000pt" viewBox="0 0 600.000000 600.000000" preserveAspectRatio="xMidYMid meet"> <g transform="translate(0.000000,600.000000) scale(0.050000,-0.050000)" fill="#ffffff" stroke="none"> <path d="M3591 10648 c-363 -133 -471 -935 -237 -1766 42 -152 48 -199 31 -240 -196 -466 -256 -684 -280 -1014 l-15 -218 -200 0 c-191 0 -200 -2 -206 -44 -8 -55 25 -64 256 -71 l170 -5 12 -80 c7 -44 19 -104 27 -134 14 -50 9 -55 -72 -76 -279 -71 -327 -91 -333 -136 -10 -67 31 -70 237 -15 232 62 207 64 257 -20 55 -93 55 -93 -32 -139 -289 -155 -453 -358 -458 -567 l-3 -133 -217 -12 c-559 -30 -647 -193 -502 -928 40 -198 99 -504 132 -680 141 -742 244 -1286 263 -1376 10 -53 19 -105 19 -115 0 -11 -101 -19 -239 -19 -353 0 -377 -20 -354 -287 24 -284 128 -428 353 -493 130 -37 7454 -26 7565 11 216 74 315 243 322 554 4 190 -38 215 -358 215 -278 0 -266 -8 -229 150 10 44 51 256 91 470 94 507 239 1264 302 1580 141 702 38 895 -488 916 l-225 9 0 134 c0 208 -124 370 -409 534 -148 85 -146 80 -89 176 50 85 36 84 270 20 196 -53 228 -52 228 11 0 51 -37 68 -237 111 -192 41 -193 43 -158 201 l26 118 193 10 c197 10 251 31 229 89 -10 25 -49 31 -212 31 l-201 0 0 115 c0 246 -102 674 -234 981 -68 158 -71 172 -49 261 255 1026 163 1761 -235 1880 -322 97 -959 -140 -1326 -492 l-73 -70 -157 41 c-542 145 -987 148 -1531 10 l-215 -54 -75 71 c-390 373 -1018 601 -1334 485z m434 -227 c246 -63 542 -229 804 -451 l135 -114 113 34 c570 176 1123 182 1690 19 l177 -51 86 80 c443 409 1100 639 1273 445 174 -195 187 -934 26 -1495 l-52 -181 82 -163 c150 -297 272 -796 257 -1051 l-6 -101 -135 -22 c-241 -39 -254 -142 -15 -119 77 8 140 9 140 3 0 -7 -10 -57 -22 -113 l-21 -101 -116 0 c-82 0 -124 -9 -143 -32 -37 -45 25 -88 127 -88 56 0 75 -7 67 -25 -7 -14 -18 -41 -24 -61 -12 -31 -30 -34 -158 -22 -505 46 -1005 -294 -1067 -725 l-13 -97 -1272 -5 -1272 -5 -12 98 c-50 425 -554 776 -1054 734 -152 -12 -200 11 -200 96 0 4 42 11 92 17 182 21 163 115 -22 115 -123 0 -127 1 -148 63 -51 145 -39 160 123 153 143 -6 145 -5 145 44 0 47 -8 51 -155 68 l-155 18 0 178 c0 298 98 674 260 996 l81 161 -40 130 c-164 530 -177 1274 -27 1503 73 111 203 131 451 67z m-89 -3825 c333 -83 659 -486 505 -625 -104 -94 -421 -57 -421 49 0 67 -36 62 -59 -7 -61 -185 -350 -173 -430 17 l-25 60 -32 -75 -32 -75 -186 0 c-209 1 -263 25 -293 130 -85 306 528 638 973 526z m4443 4 c338 -64 655 -360 580 -542 -41 -99 -88 -118 -293 -118 l-185 0 -33 63 -32 63 -32 -66 c-80 -166 -424 -140 -424 33 0 47 -29 29 -60 -38 l-30 -65 -180 6 c-250 9 -303 79 -212 274 138 294 525 462 901 390z m1257 -881 c148 -90 152 -34 -105 -1404 -349 -1867 -315 -1731 -466 -1830 -63 -42 -5995 -65 -6145 -25 -111 30 -211 150 -237 283 -27 137 -161 841 -252 1317 -273 1438 -280 1480 -246 1562 62 149 -255 137 3775 137 3586 1 3610 1 3676 -40z m-7132 -3143 c24 -82 132 -211 236 -282 48 -33 41 -34 -214 -29 -340 7 -440 70 -461 294 l-10 101 212 0 211 0 26 -84z m7359 -6 c-20 -239 -109 -298 -463 -307 -163 -4 -262 1 -250 12 11 10 57 46 102 81 73 55 146 168 177 270 9 32 33 35 226 30 l215 -6 -7 -80z"/> <path d="M4717 7995 c-87 -73 -111 -157 -101 -349 13 -231 338 -294 447 -86 148 280 -125 622 -346 435z"/> <path d="M6927 8001 c-59 -35 -83 -83 -114 -219 -68 -301 318 -490 452 -222 141 282 -95 590 -338 441z"/> <path d="M5714 7476 c-85 -31 -67 -107 46 -192 108 -82 129 -120 112 -209 -22 -120 -174 -159 -289 -74 -107 79 -148 -20 -44 -107 93 -78 186 -86 312 -25 l106 52 66 -40 c138 -84 397 -26 397 89 0 69 -32 78 -108 31 -244 -150 -403 113 -172 285 116 86 133 153 49 191 -62 28 -397 28 -475 -1z"/> </g> </svg>